<svg xmlns="http://www.w3.org/2000/svg" viewBox="0 0 275 56" width="275" height="56" role="img" aria-label="Flow">
  <title>Flow</title>
  <g transform="scale(0.583333)">
    <path fill="#15181B" d="M8.05 50C22 30 34 70 48 50C62 30 74 70 87.95 50A40 40 0 0 0 8.05 50Z"/>
    <path fill="#E2604F" d="M8.05 50C22 30 34 70 48 50C62 30 74 70 87.95 50A40 40 0 0 1 8.05 50Z"/>
  </g>
  <g transform="translate(76 6)" fill="#15181B">
    <path d="M0.00 44.00V0.00H8.51V44.00ZM6.26 25.97V18.40H28.42V25.97ZM6.26 7.51V0.00H29.48V7.51Z"/>
    <path d="M43.22 44.00V0.00H51.73V44.00ZM49.48 44.00V36.43H71.88V44.00Z"/>
    <path d="M105.65 44.69Q100.83 44.69 96.67 42.94Q92.50 41.18 89.41 38.09Q86.31 34.99 84.56 30.83Q82.80 26.66 82.80 21.91Q82.80 17.15 84.52 13.05Q86.25 8.95 89.34 5.85Q92.44 2.75 96.57 1.03Q100.70 -0.69 105.52 -0.69Q110.40 -0.69 114.54 1.03Q118.67 2.75 121.76 5.85Q124.86 8.95 126.61 13.08Q128.37 17.21 128.37 21.97Q128.37 26.73 126.61 30.86Q124.86 34.99 121.76 38.09Q118.67 41.18 114.57 42.94Q110.47 44.69 105.65 44.69ZM105.52 36.74Q109.78 36.74 112.91 34.86Q116.04 32.98 117.82 29.67Q119.60 26.35 119.60 21.91Q119.60 18.65 118.60 15.96Q117.60 13.27 115.72 11.30Q113.85 9.33 111.28 8.26Q108.71 7.20 105.52 7.20Q101.39 7.20 98.23 9.04Q95.07 10.89 93.29 14.21Q91.50 17.52 91.50 21.91Q91.50 25.22 92.54 27.98Q93.57 30.73 95.41 32.67Q97.26 34.61 99.86 35.68Q102.46 36.74 105.52 36.74Z"/>
    <path d="M153.31 44.00 139.04 0.00H147.42L158.00 33.86H155.19L165.58 0.00H171.90L182.29 33.86H179.41L190.05 0.00H198.43L184.10 44.00H177.78L167.33 10.20H170.08L159.69 44.00Z"/>
  </g>
</svg>
